<svg width="120" height="120" viewBox="0 0 120 120" fill="none" xmlns="http://www.w3.org/2000/svg">
  <defs>
    <linearGradient id="panaGradient" x1="18" y1="10" x2="110" y2="120" gradientUnits="userSpaceOnUse">
      <stop offset="0" stop-color="#e46a3b" />
      <stop offset="1" stop-color="#a12f18" />
    </linearGradient>
  </defs>
  <rect x="8" y="8" width="104" height="104" rx="24" fill="url(#panaGradient)" />
  <rect x="20" y="20" width="80" height="80" rx="18" fill="rgba(255,255,255,0.08)" />
  <path d="M36 74V42h14c8 0 14 6 14 14s-6 18-14 18H36Zm11-12h3c4 0 7-3 7-8 0-4-3-7-7-7h-3v15Z" fill="white"/>
  <path d="M66 74V42h10l8 18 8-18h10v32h-9V58l-7 16h-4l-7-16v16h-9Z" fill="white"/>
</svg>
